<svg width="377" height="99" viewBox="0 0 377 99" fill="none" xmlns="http://www.w3.org/2000/svg">
<path d="M27.0079 98.944C21.632 98.944 16.896 98.0053 12.7999 96.128C8.70395 94.2507 5.54662 91.648 3.32795 88.32C1.10928 84.9067 -5.05447e-05 80.9813 -5.05447e-05 76.544C-5.05447e-05 72.7893 0.767949 69.376 2.30395 66.304C3.92528 63.232 6.05862 60.8 8.70395 59.008C11.4346 57.216 14.4213 56.32 17.6639 56.32C20.6506 56.32 23.168 57.088 25.216 58.624C27.264 60.0747 28.544 62.1227 29.056 64.768C24.6186 64.768 21.0773 65.9627 18.4319 68.352C15.7866 70.656 14.4639 73.8133 14.4639 77.824C14.4639 81.4933 15.5733 84.4373 17.792 86.656C20.0106 88.8747 22.9546 89.984 26.624 89.984C31.1466 89.984 34.8586 88.4907 37.76 85.504C40.7466 82.432 42.24 78.592 42.24 73.984C42.24 69.9733 41.1306 66.176 38.912 62.592C36.6933 59.008 33.3653 54.656 28.928 49.536C24.32 44.2453 20.8213 39.7227 18.4319 35.968C16.128 32.128 14.976 27.9467 14.976 23.424C14.976 18.9867 16.2133 15.0187 18.688 11.52C21.1626 7.93601 24.576 5.12001 28.928 3.07201C33.28 1.02401 38.1866 7.62939e-06 43.648 7.62939e-06C50.56 7.62939e-06 56.064 1.62134 60.16 4.86401C64.3413 8.10668 66.432 12.4587 66.432 17.92C66.432 21.504 65.536 24.4053 63.7439 26.624C61.952 28.8427 59.6053 29.952 56.704 29.952C53.4613 29.952 50.8586 28.6293 48.896 25.984C50.5173 24.7893 51.7973 23.2107 52.736 21.248C53.6746 19.2853 54.144 17.2373 54.144 15.104C54.144 12.3733 53.3333 10.1973 51.712 8.57601C50.0906 6.95468 47.872 6.14401 45.056 6.14401C41.6426 6.14401 38.8266 7.38135 36.608 9.85601C34.4746 12.2453 33.408 15.3173 33.408 19.072C33.408 22.4853 34.3893 25.6853 36.352 28.672C38.3146 31.5733 41.3866 35.328 45.568 39.936C48.9813 43.6053 51.712 46.7627 53.76 49.408C55.8933 52.0533 57.6853 55.1253 59.136 58.624C60.672 62.0373 61.4399 65.7493 61.4399 69.76C61.4399 75.2213 59.9039 80.1707 56.832 84.608C53.8453 89.0453 49.7066 92.544 44.416 95.104C39.2106 97.664 33.408 98.944 27.0079 98.944ZM84.0079 97.408C79.1439 97.408 75.0906 95.744 71.8479 92.416C68.6053 89.088 66.9839 83.8827 66.9839 76.8C66.9839 70.4853 68.2213 63.872 70.6959 56.96C73.2559 49.9627 77.0106 44.0747 81.9599 39.296C86.9946 34.432 92.968 32 99.88 32C103.379 32 105.981 32.5973 107.688 33.792C109.395 34.9867 110.248 36.5653 110.248 38.528V39.424L111.656 32.64H130.088L120.872 76.16C120.531 77.44 120.36 78.8053 120.36 80.256C120.36 83.9253 122.109 85.76 125.608 85.76C127.997 85.76 130.045 84.6507 131.752 82.432C133.544 80.2133 134.952 77.312 135.976 73.728H141.352C138.195 82.944 134.269 89.216 129.576 92.544C124.968 95.7867 120.317 97.408 115.624 97.408C112.04 97.408 109.139 96.4267 106.92 94.464C104.787 92.416 103.507 89.472 103.08 85.632C100.605 89.1307 97.832 91.9893 94.76 94.208C91.7733 96.3413 88.1893 97.408 84.0079 97.408ZM92.3279 84.992C94.4613 84.992 96.552 84.0107 98.6 82.048C100.733 80 102.184 77.2267 102.952 73.728L109.096 44.8C109.096 43.6907 108.669 42.624 107.816 41.6C106.963 40.4907 105.64 39.936 103.848 39.936C100.435 39.936 97.3626 41.9413 94.632 45.952C91.9013 49.8773 89.768 54.656 88.232 60.288C86.696 65.8347 85.9279 70.7413 85.9279 75.008C85.9279 79.2747 86.5253 82.0053 87.7199 83.2C88.9999 84.3947 90.5359 84.992 92.3279 84.992ZM184.151 97.408C178.86 97.408 174.85 96.1707 172.119 93.696C169.388 91.136 168.023 87.5093 168.023 82.816C168.023 80.768 168.279 78.5493 168.791 76.16L169.815 71.168C170.156 69.7173 170.327 68.1387 170.327 66.432C170.327 62.336 168.791 60.288 165.719 60.288C164.354 60.288 162.903 60.672 161.367 61.44C159.916 62.208 158.21 63.4027 156.247 65.024L149.591 96.64H131.159L149.719 9.60001L168.663 7.04001L159.063 52.096L183.767 32.64H196.439L170.839 50.432C172.119 50.0907 173.527 49.92 175.063 49.92C179.671 49.92 183.17 51.328 185.559 54.144C187.948 56.96 189.143 60.544 189.143 64.896C189.143 66.688 188.972 68.3093 188.631 69.76L187.223 76.16C186.796 77.696 186.583 79.0613 186.583 80.256C186.583 83.4133 188.247 84.992 191.575 84.992C194.135 84.992 196.183 84.096 197.719 82.304C199.255 80.4267 200.791 77.568 202.327 73.728H207.703C202.412 89.5147 194.562 97.408 184.151 97.408ZM214.945 97.408C210.849 97.408 207.521 96.128 204.961 93.568C202.486 91.008 201.249 87.168 201.249 82.048C201.249 79.9147 201.59 77.1413 202.273 73.728L210.977 32.64H229.409L220.193 76.16C219.937 77.44 219.809 78.6347 219.809 79.744C219.809 83.2427 221.089 84.992 223.649 84.992C226.038 84.992 228.086 84.0107 229.793 82.048C231.5 80 232.865 77.2267 233.889 73.728L242.593 32.64H261.025L251.809 76.16C251.468 77.44 251.297 78.8053 251.297 80.256C251.297 81.9627 251.681 83.2 252.449 83.968C253.302 84.6507 254.668 84.992 256.545 84.992C258.934 84.992 260.982 83.968 262.689 81.92C264.481 79.872 265.889 77.1413 266.913 73.728H272.289C269.132 82.944 265.206 89.216 260.513 92.544C255.905 95.7867 251.254 97.408 246.561 97.408C242.892 97.408 239.948 96.384 237.729 94.336C235.596 92.288 234.316 89.2587 233.889 85.248C230.988 89.9413 227.916 93.1413 224.673 94.848C221.516 96.5547 218.273 97.408 214.945 97.408ZM275.602 32.64H294.034L292.37 40.576C295.271 38.016 297.874 36.0533 300.178 34.688C302.567 33.3227 305.127 32.64 307.858 32.64C310.589 32.64 312.722 33.5787 314.258 35.456C315.879 37.3333 316.69 39.5947 316.69 42.24C316.69 44.7147 315.879 46.8907 314.258 48.768C312.637 50.6453 310.375 51.584 307.474 51.584C305.597 51.584 304.317 51.1573 303.634 50.304C303.037 49.3653 302.567 48.0427 302.226 46.336C301.97 45.2267 301.714 44.416 301.458 43.904C301.202 43.392 300.733 43.136 300.05 43.136C298.258 43.136 296.722 43.52 295.442 44.288C294.247 44.9707 292.669 46.208 290.706 48L280.466 96.64H262.034L275.602 32.64ZM330.383 97.408C325.519 97.408 321.466 95.744 318.223 92.416C314.98 89.088 313.359 83.8827 313.359 76.8C313.359 70.4853 314.596 63.872 317.071 56.96C319.631 49.9627 323.386 44.0747 328.335 39.296C333.37 34.432 339.343 32 346.255 32C349.754 32 352.356 32.5973 354.063 33.792C355.77 34.9867 356.623 36.5653 356.623 38.528V39.424L358.031 32.64H376.463L367.247 76.16C366.906 77.44 366.735 78.8053 366.735 80.256C366.735 81.9627 367.119 83.2 367.887 83.968C368.74 84.6507 370.106 84.992 371.983 84.992C373.178 84.992 374.116 84.8213 374.799 84.48C372.922 89.2587 371.13 92.6293 369.423 94.592C367.716 96.4693 365.242 97.408 361.999 97.408C358.5 97.408 355.642 96.384 353.423 94.336C351.29 92.2027 349.967 89.2587 349.455 85.504C344.25 93.44 337.892 97.408 330.383 97.408ZM338.703 84.992C340.836 84.992 342.927 84.0107 344.975 82.048C347.108 80 348.559 77.2267 349.327 73.728L355.471 44.8C355.471 43.6907 355.044 42.624 354.191 41.6C353.338 40.4907 352.015 39.936 350.223 39.936C346.81 39.936 343.738 41.9413 341.007 45.952C338.276 49.8773 336.143 54.656 334.607 60.288C333.071 65.8347 332.303 70.7413 332.303 75.008C332.303 79.2747 332.9 82.0053 334.095 83.2C335.375 84.3947 336.911 84.992 338.703 84.992Z" fill="white"/>
</svg>
